<?xml version="1.0" encoding="utf-8"?>
<!-- Generator: Adobe Illustrator 16.0.0, SVG Export Plug-In . SVG Version: 6.00 Build 0)  -->
<!DOCTYPE svg PUBLIC "-//W3C//DTD SVG 1.1//EN" "http://www.w3.org/Graphics/SVG/1.1/DTD/svg11.dtd">
<svg version="1.1" id="Calque_1" xmlns="http://www.w3.org/2000/svg" xmlns:xlink="http://www.w3.org/1999/xlink" x="0px" y="0px"
	 width="432px" height="432px" viewBox="0 0 432 432" enable-background="new 0 0 432 432" xml:space="preserve">
<g>
	<path fill-rule="evenodd" clip-rule="evenodd" d="M181.799,312.742c2.413-0.367,4.723-0.852,7.028-1.355
		c5.818-1.268,11.451-3.104,16.891-5.527c0.359-0.16,0.708-0.271,0.686-0.811c-0.089-2.135,0.165-4.26,0.322-6.385
		c0.161-2.154,0.387-4.311,0.71-6.445c0.402-2.656,0.672-5.346,1.421-7.936c0.749-2.586,1.618-5.135,3.14-7.402
		c0.757-1.131,1.622-2.18,2.71-2.975c3.068-2.25,6.234-1.627,8.712,1.266c1.571,1.838,2.248,4.061,2.523,6.414
		c0.647,5.547-1.049,10.426-4.273,14.869c-2.148,2.959-4.789,5.4-7.82,7.416c-0.682,0.457-0.985,0.982-0.96,1.77
		c0.023,0.689,0.043,1.381-0.005,2.068c-0.034,0.5,0.184,0.613,0.617,0.652c0.952,0.084,1.901,0.055,2.853,0.029
		c3.163-0.082,6.269-0.551,9.337-1.33c3.887-0.988,7.32-2.852,10.466-5.293c2.233-1.736,4.321-3.635,6.408-5.543
		c0.532-0.486,0.757-0.99,0.776-1.705c0.104-4.137,0.892-8.154,2.361-12.016c0.998-2.629,2.595-4.9,4.933-6.49
		c2.567-1.746,5.34-2.061,8.201-0.598c1.699,0.871,3.094,2.086,4.233,3.609c2.239,2.998,1.934,6.922-0.016,9.666
		c-1.724,2.428-4.122,3.902-6.849,4.924c-1.825,0.684-3.725,1.049-5.658,1.221c-0.507,0.045-0.655,0.225-0.667,0.723
		c-0.062,2.531,0.088,5.045,0.465,7.551c0.367,2.445,0.976,4.816,1.843,7.129c0.512,1.359,1.195,2.639,2.029,3.811
		c0.738,1.037,1.414,2.115,2.347,3.027c1.749,1.703,3.697,2.111,5.958,1.295c1.936-0.699,3.462-1.979,4.877-3.416
		c1.928-1.953,3.412-4.24,4.894-6.529c2.081-3.215,3.495-6.754,5.097-10.207c0.797-1.715,1.098-3.441,1.06-5.326
		c-0.063-3.16,0.497-6.268,1.159-9.355c0.505-2.355,1.346-4.6,2.22-6.82c0.511-1.299,1.218-2.547,2.098-3.662
		c1.119-1.416,2.233-2.82,3.782-3.836c2.839-1.865,5.772-2.455,8.912-0.869c2.655,1.342,4.605,3.352,5.556,6.221
		c1.153,3.482-0.344,8.895-3.647,11.221c-2.232,1.57-4.648,2.686-7.208,3.549c-1.776,0.6-3.59,1.039-5.463,1.191
		c-0.514,0.043-0.7,0.266-0.74,0.805c-0.292,3.93,0.042,7.799,1.067,11.6c0.498,1.846,1.246,3.627,2.252,5.227
		c1.133,1.807,2.549,3.469,4.366,4.629c2.043,1.305,4.333,1.818,6.78,1.521c3.032-0.369,5.625-1.721,8.018-3.523
		c3.416-2.574,6.016-5.848,8.071-9.568c2.388-4.322,4.224-8.889,5.892-13.527c0.243-0.676,0.47-1.363,0.437-2.109
		c-0.021-0.436,0.151-0.789,0.637-0.844c0.473-0.053,0.733,0.264,0.867,0.658c0.218,0.643,0.157,1.299,0,1.945
		c-0.374,1.531-0.892,3.021-1.438,4.498c-1.267,3.418-2.562,6.832-4.114,10.127c-2.299,4.875-5.508,9.094-9.709,12.502
		c-2.8,2.27-5.973,3.844-9.568,4.348c-2.822,0.396-5.584,0.156-8.301-0.926c-2.558-1.018-4.653-2.598-6.324-4.691
		c-1.745-2.186-3.106-4.623-3.895-7.348c-0.449-1.545-0.895-3.088-1.142-4.682c-0.031-0.191-0.048-0.396-0.244-0.514
		c-0.187,0.045-0.23,0.211-0.287,0.355c-1.016,2.527-1.987,5.074-3.049,7.582c-2.192,5.17-5.295,9.662-9.946,12.943
		c-2.157,1.523-4.551,2.344-7.222,2.107c-1.551-0.137-3.013-0.639-4.4-1.33c-1.578-0.785-2.879-1.955-4.091-3.203
		c-1.078-1.111-1.86-2.459-2.55-3.836c-1.416-2.826-2.467-5.791-3.028-8.91c-0.401-2.225-0.791-4.459-0.846-6.729
		c-0.011-0.455-0.023-0.912-0.167-1.4c-0.368,0.023-0.523,0.299-0.724,0.479c-1.517,1.359-3.031,2.723-4.538,4.092
		c-2.687,2.441-5.772,4.209-9.181,5.426c-4.134,1.475-8.372,2.465-12.775,2.639c-0.293,0.012-0.592-0.008-0.892,0.248
		c1.048,0.521,2.092,0.984,3.084,1.541c5.005,2.811,9.31,6.412,12.303,11.379c3.091,5.131,4.188,10.713,3.436,16.656
		c-0.369,2.922-1.146,5.727-2.55,8.334c-0.79,1.463-1.783,2.758-3.222,3.648c-1.628,1.01-3.354,1.383-5.269,0.957
		c-2.576-0.574-4.584-1.977-6.31-3.92c-1.759-1.98-3.171-4.176-4.34-6.537c-1.296-2.625-2.233-5.385-2.985-8.207
		c-0.887-3.334-1.554-6.715-1.994-10.135c-0.276-2.148-0.55-4.297-0.667-6.465c-0.178-3.344-0.368-6.682-0.333-10.188
		c-3.167,1.258-6.25,2.502-9.431,3.48c-3.16,0.973-6.359,1.793-9.562,2.574c0.013,0.242,0.171,0.293,0.321,0.363
		c5.482,2.582,9.151,6.809,11.245,12.447c0.986,2.656,1.667,5.389,1.827,8.234c0.142,2.541-0.186,5.043-0.608,7.541
		c-0.361,2.119-0.937,4.162-2.014,6.035c-0.655,1.143-1.415,2.205-2.41,3.094c-1.969,1.76-4.176,2.055-6.595,1.146
		c-2.069-0.775-3.631-2.242-4.98-3.906c-2.89-3.564-4.96-7.563-6.054-12.037c-0.396-1.625-0.864-3.234-1.126-4.889
		c-0.528-3.336-1.083-6.666-1.314-10.041c-0.183-2.652-0.316-5.305-0.398-7.961c-0.082-2.693,0.064-5.381,0.128-8.072
		c0.057-2.398,0.315-4.783,0.431-7.176c0.045-0.908,0.286-1.809,0.16-2.715c-0.413-0.178-0.747,0.031-1.091,0.088
		c-1.622,0.271-3.25,0.453-4.896,0.494c-0.922,0.023-0.938,0.047-0.927,0.924c0.09,7.676-2.217,14.678-6.028,21.242
		c-1.299,2.238-2.993,4.154-5.107,5.67c-4.044,2.895-7.996,2.814-12.171,0.066c-1.591-1.047-2.792-2.5-3.798-4.086
		c-1.826-2.887-2.998-6.02-3.65-9.391c-0.334-1.732-0.547-3.482-0.859-5.215c-0.358-0.033-0.387,0.256-0.488,0.432
		c-1.447,2.502-2.879,5.012-4.328,7.514c-2.006,3.463-4.434,6.596-7.492,9.195c-1.479,1.258-3.186,2.072-5.209,2.014
		c-1.965-0.055-3.505-0.98-4.85-2.314c-1.481-1.469-2.681-3.152-3.624-5.008c-1.329-2.613-2.3-5.363-2.869-8.244
		c-0.79-4.004-1.222-8.049-1.174-12.131c0.024-2.096,0.16-4.188,0.35-6.279c0.242-2.662,0.723-5.268,1.428-7.832
		c0.548-1.994,1.236-3.936,2.237-5.766c0.554-1.014,1.138-1.996,1.848-2.9c1.007-1.281,2.208-2.32,3.801-2.844
		c1.486-0.488,2.91-0.27,4.138,0.596c4.097,2.883,6.519,6.861,7.385,11.777c0.211,1.197,0.096,2.42-0.078,3.631
		c-0.086,0.598-0.587,0.994-0.938,0.975c-0.482-0.029-0.841-0.445-0.89-1.123c-0.066-0.916-0.018-1.84-0.156-2.754
		c-0.565-3.711-2.079-6.891-5.157-9.191c-0.21-0.156-0.421-0.314-0.645-0.453c-0.813-0.498-1.479-0.41-2.1,0.305
		c-0.654,0.754-1.058,1.654-1.428,2.568c-1.405,3.467-1.981,7.123-2.526,10.799c-0.565,3.813-0.751,7.641-0.56,11.482
		c0.138,2.787,0.468,5.555,1.016,8.301c0.321,1.607,0.6,3.227,0.957,4.826c0.458,2.055,1.073,4.059,2.015,5.951
		c0.413,0.828,0.982,1.555,1.635,2.205c0.55,0.549,1.191,0.76,1.979,0.484c0.941-0.33,1.788-0.814,2.573-1.416
		c1.55-1.186,2.794-2.676,4.043-4.158c2.939-3.484,5.128-7.463,7.462-11.346c0.305-0.508,0.565-1.045,0.912-1.521
		c0.516-0.707,0.683-1.506,0.625-2.33c-0.15-2.186,0.234-4.32,0.479-6.475c0.179-1.568,0.46-3.119,0.912-4.629
		c0.454-1.521,1.14-2.932,2.225-4.127c0.761-0.834,1.707-1.078,2.773-0.893c1.171,0.201,1.89,1.207,1.792,2.568
		c-0.094,1.277-0.25,2.549-0.435,3.814c-0.279,1.918-0.735,3.807-0.944,5.736c-0.325,2.98-0.346,5.965,0.029,8.939
		c0.279,2.213,0.775,4.383,1.375,6.535c0.573,2.057,1.114,4.123,2.048,6.051c1.023,2.111,2.584,3.611,4.979,4.074
		c0.806,0.156,1.57-0.012,2.314-0.283c1.809-0.656,3.236-1.854,4.475-3.283c2.484-2.869,4.176-6.191,5.464-9.736
		c1.402-3.855,2.259-7.816,2.29-11.934c0.001-0.166-0.009-0.33,0-0.494c0.024-0.395-0.13-0.563-0.551-0.625
		c-1.461-0.207-2.918-0.445-4.317-0.951c-3.077-1.113-5.553-2.953-7.097-5.895c-0.936-1.781-1.246-3.662-0.634-5.621
		c0.841-2.695,3.147-3.936,5.868-3.158c1.771,0.506,3.144,1.613,4.299,3c2.027,2.43,3.139,5.285,3.782,8.346
		c0.116,0.545,0.206,1.096,0.287,1.646c0.058,0.396,0.255,0.537,0.66,0.541c2.213,0.016,4.386-0.27,6.531-0.801
		c0.302-0.074,0.451-0.209,0.484-0.516c0.045-0.424,0.116-0.846,0.179-1.268c0.528-3.533,0.981-7.088,2.152-10.482
		c1.027-2.988,2.287-5.869,4.178-8.436c0.891-1.209,1.977-2.215,3.288-2.918c1.921-1.031,4.239-1.018,6.076,0.563
		c2.079,1.789,2.842,4.135,2.671,6.799c-0.313,4.852-2.517,8.758-6.112,11.949c-1.605,1.422-3.381,2.602-5.24,3.658
		c-0.347,0.197-0.534,0.391-0.574,0.809c-0.162,1.699-0.342,3.398-0.561,5.09c-0.294,2.283-0.351,4.58-0.5,6.873
		C181.71,308.23,181.738,310.463,181.799,312.742z M212.936,312.617c-0.144,1.844,0.092,3.541,0.226,5.234
		c0.166,2.121,0.345,4.248,0.68,6.355c0.396,2.496,0.798,4.988,1.387,7.443c0.718,2.994,1.633,5.932,2.705,8.816
		c0.73,1.967,1.509,3.918,2.558,5.742c0.59,1.025,1.271,1.986,2.183,2.766c1.451,1.242,2.975,1.256,4.432,0.02
		c0.972-0.826,1.625-1.889,2.153-3.023c1.181-2.533,1.723-5.217,1.886-7.994c0.241-4.082-0.463-7.971-2.327-11.627
		c-1.836-3.605-4.479-6.531-7.617-9.041C218.724,315.328,215.991,313.807,212.936,312.617z M197.851,336.977
		c-0.013-1.283-0.097-2.559-0.279-3.83c-0.344-2.408-0.825-4.783-1.852-7.014c-1.033-2.238-2.589-4.092-4.275-5.855
		c-2.128-2.227-4.707-3.637-7.708-4.273c-1.967-0.416-2.117-0.277-1.908,1.723c0.211,2.02,0.309,4.049,0.495,6.072
		c0.305,3.338,0.833,6.629,1.592,9.885c0.468,2.008,1.074,3.986,1.632,5.977c0.585,2.086,1.322,4.115,2.325,6.045
		c0.781,1.498,1.704,2.883,3.146,3.836c1.031,0.678,1.849,0.611,2.765-0.211c0.467-0.42,0.862-0.904,1.172-1.449
		C196.889,344.504,197.853,340.869,197.851,336.977z M213.128,301.621c1.319-0.816,2.332-1.693,3.326-2.594
		c2.736-2.473,4.978-5.318,6.43-8.732c1.338-3.148,1.755-6.383,0.739-9.709c-0.475-1.553-1.147-3.016-2.535-3.998
		c-1.167-0.826-2.082-0.688-3.021,0.391c-0.912,1.045-1.377,2.314-1.734,3.609c-0.935,3.387-1.45,6.863-2.044,10.318
		c-0.327,1.904-0.503,3.834-0.711,5.756C213.404,298.256,213.285,299.857,213.128,301.621z M285.695,287.082
		c0.134,0.037,0.224,0.074,0.317,0.086c0.469,0.059,0.907-0.125,1.357-0.199c3-0.494,5.881-1.35,8.513-2.916
		c2.196-1.307,3.625-3.152,4.106-5.723c0.464-2.48-0.462-4.742-2.52-6.051c-1.952-1.238-4.15-1.467-5.995,0.682
		c-0.752,0.875-1.417,1.818-1.935,2.84c-0.754,1.488-1.461,3.008-2.088,4.555c-0.603,1.488-0.981,3.057-1.37,4.615
		C285.906,285.66,285.733,286.355,285.695,287.082z M250.228,291.805c1.698-0.115,3.228-0.475,4.736-0.896
		c2.162-0.602,4.214-1.441,5.821-3.107c1.508-1.561,2.127-3.402,1.508-5.496c-0.626-2.119-2.24-3.258-4.323-3.725
		c-1.194-0.268-2.284,0.105-3.166,0.947c-0.617,0.59-1.093,1.297-1.488,2.063c-0.936,1.813-1.601,3.732-2.217,5.664
		C250.643,288.682,250.389,290.17,250.228,291.805z M183.363,290.596c0.354,0.061,0.558-0.125,0.761-0.271
		c0.932-0.67,1.889-1.309,2.768-2.043c2.086-1.744,3.854-3.752,4.89-6.314c0.78-1.928,1.096-3.912,0.654-5.971
		c-0.238-1.104-0.785-2.016-1.798-2.58c-0.603-0.334-1.173-0.27-1.736,0.16c-0.672,0.512-1.127,1.189-1.528,1.902
		c-0.838,1.496-1.396,3.105-1.855,4.75c-0.706,2.525-1.123,5.113-1.667,7.674C183.665,288.787,183.502,289.691,183.363,290.596z
		 M166.712,294.406c-0.55-3.184-1.585-6.092-3.543-8.607c-0.929-1.193-2.156-2.002-3.672-2.299
		c-1.237-0.242-2.211,0.352-2.575,1.559c-0.202,0.672-0.22,1.355-0.11,2.043c0.341,2.131,1.483,3.76,3.22,4.973
		c1.379,0.965,2.921,1.607,4.546,2.037C165.232,294.283,165.872,294.578,166.712,294.406z"/>
	<path fill-rule="evenodd" clip-rule="evenodd" d="M154.434,124.221c0.409-0.287,0.424-0.639,0.545-0.93
		c1.824-4.313,4.431-8.045,8.143-10.951c1.146-0.896,2.403-1.588,3.861-1.873c1.942-0.381,3.681,0.369,4.707,2.078
		c0.78,1.301,1.034,2.754,1.211,4.229c0.241,1.996,0.196,4.002,0.197,6.006c0,2.695-0.029,5.391,0.002,8.088
		c0.03,2.498,0.215,4.986,0.778,7.436c0.161,0.693,0.354,1.379,0.704,2.07c0.419-0.252,0.558-0.627,0.737-0.963
		c0.808-1.512,1.35-3.135,1.908-4.746c1.484-4.279,2.835-8.605,4.24-12.912c0.591-1.811,0.876-3.598,0.856-5.488
		c-0.019-1.74-0.022-3.486,0.211-5.217c0.043-0.326,0.078-0.648,0.219-0.957c0.368-0.807,1.191-1.262,1.997-1.094
		c0.831,0.174,1.427,0.885,1.421,1.771c-0.005,0.656-0.094,1.311-0.128,1.967c-0.318,6.123-0.119,12.219,1.052,18.258
		c0.307,1.584,0.675,3.16,1.44,4.59c1.004,1.879,1.248,1.693,2.306,0.141c1.008-1.475,1.636-3.139,2.205-4.822
		c1.221-3.615,2.021-7.342,2.933-11.037c0.597-2.424,1.183-4.85,1.779-7.271c0.15-0.605,0.323-1.207,0.694-1.727
		c0.957-1.336,2.617-1.186,3.31,0.301c0.225,0.482,0.296,1,0.347,1.527c0.233,2.422,0.144,4.859,0.359,7.285
		c0.34,3.844,1.007,7.615,2.375,11.24c0.327,0.859,0.722,1.691,1.233,2.461c0.163,0.244,0.354,0.473,0.557,0.688
		c0.906,0.955,1.627,1.016,2.675,0.244c0.697-0.516,1.23-1.184,1.712-1.893c1.65-2.428,2.584-5.154,3.27-7.975
		c0.311-1.277,0.489-2.58,0.68-3.879c0.105-0.719-0.146-1.078-0.69-1.443c-1.257-0.842-2.438-1.787-3.543-2.822
		c-1.324-1.242-2.547-2.57-3.482-4.135c-1.27-2.123-1.778-4.367-1-6.795c0.315-0.986,0.809-1.873,1.593-2.564
		c1.364-1.199,2.905-1.449,4.582-0.768c1.058,0.432,1.897,1.172,2.635,2.023c1.881,2.176,2.917,4.736,3.382,7.545
		c0.303,1.818,0.457,3.654,0.37,5.496c-0.031,0.646,0.194,1.014,0.697,1.377c2.075,1.506,4.129,3.043,5.92,4.893
		c0.456,0.469,0.896,0.951,1.378,1.465c1.762-1.383,3.533-2.682,5.395-3.848c0.752-0.471,1.481-0.982,2.26-1.402
		c0.488-0.262,0.622-0.582,0.559-1.105c-0.197-1.631-0.313-3.27-0.408-4.91c-0.248-4.299-0.467-8.6-0.233-12.906
		c0.021-0.385,0.04-0.678-0.495-0.754c-6.155-0.875-11.906-3.143-17.723-5.182c-2.818-0.986-5.651-1.932-8.621-2.359
		c-4.956-0.715-9.602,0.145-13.893,2.771c-0.141,0.086-0.272,0.186-0.417,0.262c-0.866,0.449-1.845,0.232-2.368-0.52
		c-0.523-0.75-0.398-1.74,0.34-2.4c0.542-0.482,1.17-0.85,1.813-1.178c4.474-2.287,9.196-3.203,14.207-2.619
		c3.781,0.441,7.344,1.666,10.906,2.91c3.776,1.318,7.516,2.744,11.395,3.75c1.366,0.354,2.742,0.66,4.139,0.869
		c1.019,0.15,1.03,0.133,1.141-0.871c0.208-1.896,0.539-3.771,1.035-5.613c0.602-2.229,1.386-4.383,2.703-6.309
		c0.674-0.982,1.448-1.869,2.429-2.561c2.186-1.541,4.547-1.578,6.66,0.059c3.19,2.475,4.807,5.746,4.293,9.811
		c-0.51,4.047-2.775,6.867-6.562,8.424c-2.004,0.824-4.125,1.043-6.265,1.129c-0.198,0.01-0.396,0.016-0.592,0.008
		c-0.386-0.016-0.526,0.184-0.518,0.545c0.006,0.262-0.009,0.523-0.015,0.787c-0.155,7.045,0.242,14.059,1.159,21.043
		c0.086,0.65,0.164,1.301,0.257,2.035c0.306-0.238,0.322-0.525,0.399-0.785c0.802-2.717,1.823-5.344,3.327-7.76
		c1.37-2.201,3.075-4.098,5.158-5.643c1.385-1.029,2.898-1.77,4.619-2.096c2.999-0.564,5.43,0.422,7.416,2.637
		c1.22,1.363,2.032,2.98,2.704,4.668c0.511,1.281,0.929,2.592,1.245,3.939c0.175,0.744,0.047,0.879,1.001,0.676
		c3.048-0.643,6.115-1.191,9.175-1.781c0.224-0.041,0.452-0.088,0.663-0.17c0.469-0.182,0.784-0.422,0.852-1.031
		c0.195-1.768,0.638-3.486,1.293-5.145c0.746-1.891,1.799-3.576,3.291-4.971c4.027-3.771,8.822-2.926,12.296-0.008
		c0.758,0.635,1.347,1.441,1.9,2.256c0.587,0.865,0.421,1.877-0.344,2.467c-0.752,0.578-1.691,0.516-2.406-0.215
		c-0.389-0.396-0.695-0.875-1.068-1.289c-1.334-1.479-2.982-2.209-4.993-2.053c-0.779,0.061-1.453,0.387-2.083,0.818
		c-1.28,0.879-2.189,2.07-2.85,3.459c-0.958,2.014-1.445,4.156-1.579,6.367c-0.183,3.002-0.055,5.979,0.941,8.859
		c0.336,0.973,0.794,1.875,1.442,2.674c1.175,1.451,2.68,1.822,4.398,1.08c1.167-0.506,2.114-1.32,3.006-2.199
		c1.74-1.713,3.203-3.654,4.604-5.646c0.568-0.807,1.133-1.613,1.719-2.404c0.233-0.314,0.49-0.629,0.792-0.873
		c1.277-1.027,2.852-0.582,3.407,0.963c0.292,0.811,0.351,1.668,0.389,2.521c0.102,2.299,0.203,4.598,0.782,6.842
		c0.239,0.924,0.521,1.832,0.91,2.703c0.118,0.268,0.216,0.547,0.474,0.807c0.392-0.23,0.566-0.623,0.776-0.973
		c1.176-1.953,1.992-4.068,2.73-6.209c1.424-4.127,2.821-8.266,3.85-12.516c0.126-0.52,0.197-1.023,0.175-1.555
		c-0.05-1.184-0.099-2.365-0.121-3.547c-0.023-1.365,0.69-2.256,1.785-2.273c1.099-0.018,1.799,0.836,1.848,2.221
		c0.067,1.904,0.146,3.809,0.223,5.783c0.401-0.146,0.43-0.508,0.558-0.764c1.489-2.99,3.519-5.539,6.163-7.586
		c0.937-0.725,1.911-1.389,3.086-1.693c1.573-0.406,2.948,0.072,3.882,1.412c0.855,1.227,1.108,2.652,1.278,4.094
		c0.19,1.604,0.211,3.215,0.162,4.826c-0.095,3.154-0.213,6.307-0.306,9.461c-0.063,2.172,0.029,4.336,0.555,6.459
		c0.109,0.447,0.246,0.887,0.479,1.289c0.161,0.273,0.367,0.344,0.656,0.17c0.486-0.287,0.895-0.664,1.271-1.08
		c0.909-1.008,1.647-2.137,2.25-3.346c1.511-3.025,2.986-6.068,4.479-9.104c0.191-0.389,0.273-0.799,0.343-1.225
		c0.403-2.441,1.042-4.813,2.112-7.055c0.89-1.861,2.061-3.51,3.719-4.775c2.333-1.777,4.91-2.277,7.712-1.383
		c2.327,0.74,4.397,1.9,5.837,3.93c0.233-0.074,0.282-0.23,0.341-0.385c1.712-4.551,3.351-9.123,4.43-13.871
		c0.393-1.729,0.713-3.475,1.076-5.211c0.093-0.447,0.188-0.902,0.343-1.332c0.346-0.963,1.2-1.479,2.054-1.281
		c0.966,0.221,1.548,1.01,1.424,2.053c-0.096,0.813-0.269,1.621-0.447,2.42c-0.65,2.922-0.989,5.893-1.396,8.852
		c-0.397,2.896-0.78,5.795-1.09,8.701c-0.505,4.74-0.913,9.49-0.865,14.262c0.027,2.695,0.271,5.381,0.965,8.002
		c0.253,0.957,0.577,1.889,1.188,2.686c0.576,0.752,0.85,0.801,1.661,0.342c0.643-0.363,1.139-0.885,1.576-1.467
		c0.575-0.762,1.07-1.576,1.505-2.426c1.437-2.807,2.914-5.594,3.78-8.65c0.08-0.281,0.202-0.559,0.354-0.811
		c0.493-0.814,1.375-1.109,2.209-0.762c0.832,0.348,1.296,1.193,1.057,2.09c-0.235,0.887-0.516,1.766-0.845,2.623
		c-1.112,2.887-2.473,5.654-4.002,8.34c-0.586,1.029-1.248,2.014-2.099,2.85c-1.123,1.104-2.387,1.955-4.015,2.107
		c-1.18,0.109-2.198-0.242-3.09-1.01c-1.076-0.93-1.758-2.113-2.263-3.414c-0.78-2.01-1.118-4.115-1.347-6.242
		c-0.461-4.301-0.217-8.6,0.084-12.896c0.032-0.457,0.074-0.914,0.126-1.527c-0.408,0.361-0.471,0.74-0.602,1.066
		c-1.244,3.078-2.58,6.113-4.149,9.039c-1.372,2.561-2.991,4.947-5.018,7.043c-0.895,0.922-1.85,1.771-2.983,2.402
		c-2.688,1.496-5.294,0.947-7.134-1.52c-0.712-0.955-1.228-2.018-1.625-3.141c-0.108-0.303-0.214-0.607-0.321-0.908
		c-0.355-0.004-0.365,0.285-0.455,0.467c-0.706,1.408-1.381,2.834-2.206,4.182c-0.914,1.494-1.958,2.881-3.347,3.973
		c-0.627,0.494-1.309,0.889-2.096,1.049c-1.87,0.383-3.472-0.418-4.396-2.209c-0.702-1.363-1.001-2.844-1.188-4.35
		c-0.388-3.146-0.195-6.301-0.094-9.453c0.091-2.859,0.212-5.715,0.104-8.578c-0.034-0.889-0.16-1.766-0.413-2.619
		c-0.201-0.676-0.348-0.727-0.981-0.363c-0.89,0.508-1.669,1.164-2.412,1.865c-2.84,2.68-4.499,6.023-5.464,9.754
		c-0.596,2.299-0.781,4.658-1.01,7.012c-0.166,1.703-0.278,3.406-0.236,5.119c0.001,0.064-0.002,0.131-0.007,0.195
		c-0.098,1.18-0.808,1.969-1.795,1.996c-1.008,0.029-1.797-0.787-1.88-2.01c-0.15-2.197-0.272-4.395-0.406-6.594
		c-0.014-0.221-0.028-0.443-0.048-0.773c-0.415,0.328-0.426,0.754-0.544,1.098c-0.883,2.545-1.761,5.09-3.023,7.48
		c-0.461,0.873-0.96,1.723-1.586,2.49c-0.145,0.178-0.291,0.357-0.452,0.521c-1.707,1.729-3.779,1.594-5.212-0.371
		c-1.103-1.514-1.659-3.273-2.118-5.061c-0.326-1.271-0.567-2.564-0.666-3.879c-0.036-0.475-0.104-0.945-0.182-1.637
		c-0.391,0.51-0.647,0.838-0.894,1.172c-1.512,2.035-3.118,3.984-5.057,5.639c-1.29,1.1-2.707,1.98-4.373,2.375
		c-2.545,0.605-4.751-0.082-6.595-1.895c-1.693-1.662-2.596-3.764-3.169-6.029c-0.373-1.467-0.563-2.965-0.686-4.475
		c-0.081-0.998-0.093-1.002-1.052-0.832c-2.841,0.504-5.688,0.98-8.507,1.605c-0.095,0.02-0.193,0.033-0.289,0.057
		c-0.988,0.232-0.98,0.232-0.967,1.289c0.045,3.535-0.573,6.932-2.167,10.115c-1.284,2.564-3.039,4.684-5.771,5.811
		c-1.482,0.615-3.025,0.922-4.619,0.557c-3.277-0.752-5.422-3.719-5.226-7.162c0.17-2.98,1.497-5.4,3.593-7.449
		c1.544-1.508,3.344-2.645,5.271-3.592c1.385-0.68,2.806-1.283,4.274-1.758c0.473-0.154,0.633-0.363,0.515-0.854
		c-0.506-2.117-1.18-4.17-2.285-6.061c-0.099-0.17-0.205-0.336-0.313-0.5c-1.61-2.459-3.718-3.053-6.469-1.68
		c-1.982,0.988-3.493,2.557-4.786,4.32c-2.053,2.803-3.235,6-4.047,9.34c-0.724,2.977-1.045,6.018-1.372,9.055
		c-0.054,0.498-0.143,0.971-0.387,1.41c-0.37,0.664-0.937,1.018-1.691,0.986c-0.803-0.035-1.389-0.469-1.619-1.229
		c-0.267-0.877-0.459-1.779-0.631-2.682c-0.637-3.322-1.193-6.658-1.613-10.016c-0.02-0.156-0.006-0.332-0.194-0.457
		c-0.068,0.018-0.17,0.02-0.245,0.064c-2.019,1.238-3.959,2.588-5.824,4.047c-0.417,0.326-0.453,0.602-0.213,1.064
		c1.338,2.584,2.061,5.324,1.934,8.25c-0.094,2.172-0.641,4.223-1.937,6.01c-1.044,1.438-2.402,2.389-4.223,2.615
		c-2.449,0.307-4.759-1.016-5.693-3.307c-0.71-1.746-0.657-3.529-0.273-5.33c0.68-3.184,2.1-5.996,4.253-8.439
		c0.13-0.146,0.264-0.293,0.395-0.439c0.5-0.564,0.505-0.568,0.038-1.113c-0.751-0.873-1.577-1.674-2.459-2.416
		c-0.852-0.711-1.695-1.439-2.632-2.035c-0.279,0.258-0.231,0.572-0.283,0.855c-0.633,3.479-1.646,6.83-3.381,9.93
		c-0.823,1.471-1.803,2.826-3.119,3.908c-2.621,2.154-5.592,1.936-7.884-0.574c-1.152-1.26-1.862-2.777-2.464-4.348
		c-0.99-2.586-1.614-5.27-2.062-7.998c-0.074-0.449-0.148-0.902-0.371-1.393c-0.083,0.313-0.167,0.623-0.244,0.938
		c-0.801,3.217-1.575,6.443-2.757,9.551c-0.573,1.508-1.249,2.965-2.143,4.314c-0.455,0.689-0.97,1.326-1.604,1.859
		c-1.579,1.326-3.541,1.324-5.12-0.008c-0.767-0.645-1.317-1.459-1.77-2.344c-1.042-2.043-1.555-4.246-1.966-6.48
		c-0.094-0.512-0.181-1.027-0.281-1.598c-0.418,0.221-0.406,0.625-0.511,0.936c-0.955,2.865-1.892,5.738-2.976,8.559
		c-0.473,1.229-1.009,2.426-1.747,3.523c-0.408,0.605-0.875,1.15-1.475,1.572c-1.353,0.949-2.841,0.824-4.029-0.332
		c-0.677-0.658-1.077-1.486-1.401-2.352c-0.671-1.799-0.995-3.674-1.194-5.572c-0.37-3.504-0.356-7.021-0.308-10.537
		c0.034-2.367,0.052-4.732-0.083-7.098c-0.051-0.891-0.174-1.77-0.415-2.623c-0.372-1.324-0.92-1.568-2.182-0.977
		c-1.021,0.479-1.894,1.18-2.706,1.953c-3.803,3.637-6.146,8.068-7.13,13.223c-0.228,1.191-0.38,2.4-0.562,3.602
		c-0.07,0.461-0.202,0.898-0.476,1.279c-0.75,1.045-2.168,1.057-2.934,0.023c-0.298-0.402-0.451-0.871-0.567-1.354
		c-0.752-3.135-1.25-6.316-1.741-9.494c-0.57-3.703-1.003-7.422-1.281-11.158c-0.309-4.141-0.328-8.275,0.016-12.41
		c0.104-1.25,0.109-1.248-1.14-1.461c-2.199-0.375-4.392-0.785-6.598-1.115c-1.883-0.279-3.784-0.5-5.683-0.096
		c-1.673,0.355-3.177,1.039-4.334,2.355c-0.108,0.121-0.217,0.246-0.342,0.354c-0.682,0.58-1.582,0.609-2.264,0.084
		c-0.687-0.533-0.893-1.408-0.506-2.213c0.277-0.572,0.715-1.025,1.188-1.432c1.98-1.703,4.286-2.656,6.877-2.881
		c2.439-0.213,4.853,0.082,7.253,0.502c1.776,0.311,3.553,0.625,5.331,0.93c0.738,0.127,0.737,0.121,0.887-0.672
		c0.437-2.293,0.982-4.557,1.776-6.756c0.948-2.617,2.174-5.076,4.232-7.023c1.781-1.686,3.868-2.592,6.355-2.305
		c1.728,0.199,3.303,0.852,4.706,1.877c2.643,1.936,4.356,4.484,4.724,7.766c0.393,3.506-1.033,6.275-3.814,8.371
		c-1.905,1.436-4.11,2.156-6.418,2.613c-2.534,0.502-5.092,0.51-7.658,0.402c-0.909-0.039-0.902-0.025-0.974,0.898
		c-0.448,5.822-0.186,11.621,0.531,17.41C153.79,119.764,154.068,121.943,154.434,124.221z M349.327,108.486
		c-1.015-0.006-1.886,0.338-2.682,0.9c-1.156,0.813-1.952,1.924-2.633,3.143c-0.63,1.127-0.901,2.393-1.456,3.543
		c-0.701,1.451-0.912,3-0.969,4.584c-0.028,0.75-0.271,1.508-0.078,2.25c0.265,1.02,0.351,2.066,0.599,3.086
		c0.25,1.027,0.627,2.004,1.212,2.891c0.875,1.324,1.608,1.473,2.957,0.609c0.138-0.09,0.272-0.184,0.403-0.285
		c0.921-0.697,1.71-1.533,2.448-2.418c3.184-3.811,5.083-8.324,7.001-12.826c0.092-0.217,0.16-0.43-0.056-0.629
		c-0.445-0.412-0.638-0.986-0.938-1.492C353.818,109.635,351.706,108.826,349.327,108.486z M156.206,95.762
		c1.879,0.006,3.734-0.201,5.562-0.625c1.914-0.441,3.686-1.17,5.073-2.637c1.079-1.143,1.543-2.494,1.417-4.049
		c-0.223-2.76-2.373-5.447-5.065-6.34c-1.746-0.578-3.292-0.254-4.624,1.037c-0.737,0.715-1.355,1.52-1.856,2.41
		c-1.662,2.959-2.462,6.203-3.103,9.494c-0.073,0.377,0.065,0.568,0.435,0.592C154.764,95.688,155.484,95.723,156.206,95.762z
		 M239.669,96.926c1.088-0.004,2.16-0.168,3.205-0.445c2.698-0.713,4.639-2.281,5.316-5.088c0.673-2.795-0.259-5.104-2.339-6.986
		c-1.141-1.031-2.07-0.998-3.202,0.045c-0.334,0.309-0.634,0.662-0.911,1.027c-0.619,0.814-1.076,1.719-1.461,2.664
		c-0.973,2.385-1.488,4.883-1.821,7.422C238.235,97.25,238.282,96.9,239.669,96.926z M261.252,125.572
		c-0.143,0.012-0.246-0.002-0.332,0.031c-2.262,0.816-4.443,1.799-6.38,3.252c-1.032,0.771-1.955,1.658-2.649,2.758
		c-0.775,1.227-1.183,2.551-1.088,4.018c0.113,1.752,1.909,3.168,3.574,2.795c1.631-0.365,2.898-1.18,3.916-2.449
		c0.977-1.223,1.624-2.625,2.113-4.096C261.084,129.842,261.402,127.748,261.252,125.572z M226.094,130.777
		c-2.035,2.307-3.273,4.783-3.707,7.65c-0.098,0.652-0.115,1.303,0.003,1.959c0.139,0.762,0.485,1.385,1.248,1.623
		c0.776,0.244,1.484,0.039,2.083-0.527c0.637-0.604,1.035-1.35,1.287-2.174C227.903,136.391,227.376,133.625,226.094,130.777z
		 M215.033,115.365c-0.003-3.238-0.613-6.262-2.82-8.764c-0.194-0.221-0.417-0.42-0.651-0.598c-0.829-0.629-1.316-0.496-1.74,0.467
		c-0.146,0.33-0.229,0.68-0.264,1.045c-0.102,1.055,0.164,2.021,0.696,2.916C211.449,112.436,213.117,113.994,215.033,115.365z"/>
	<path fill-rule="evenodd" clip-rule="evenodd" d="M260.766,206.316c0.604-0.377,0.956-0.887,1.279-1.422
		c1.165-1.92,1.963-4.004,2.725-6.102c1.764-4.848,3.11-9.822,4.566-14.766c0.179-0.607,0.256-1.215,0.222-1.844
		c-0.143-2.67,0.007-5.322,0.538-7.939c0.568-2.805,1.665-5.393,3.452-7.646c0.954-1.201,2.183-2.104,3.607-2.67
		c1.563-0.619,3.186-0.639,4.668,0.197c2.759,1.553,4.639,3.846,5.316,6.986c0.69,3.211-0.423,7.518-5.428,8.816
		c-1.439,0.373-2.902,0.525-4.393,0.432c-1.153-0.07-1.211-0.049-1.182,1.117c0.064,2.635,0.483,5.215,1.309,7.73
		c0.84,2.564,2.061,4.918,3.919,6.871c1.959,2.061,4.387,2.633,7.119,1.838c2.388-0.697,4.391-2.072,6.18-3.732
		c4.277-3.977,6.939-8.938,8.59-14.479c0.591-1.988,0.973-4.02,1.091-6.096c0.011-0.197,0.036-0.393,0.036-0.59
		c0-0.785-0.016-0.816-0.797-0.943c-1.822-0.293-3.585-0.76-5.24-1.609c-2.765-1.42-4.474-3.617-4.87-6.721
		c-0.237-1.863,0.177-3.604,1.438-5.059c1.489-1.719,3.693-1.975,5.583-0.686c1.083,0.734,1.88,1.736,2.552,2.834
		c1.598,2.609,2.621,5.43,2.994,8.475c0.087,0.713,0.087,0.721,0.85,0.768c2.296,0.139,4.593,0.248,6.87,0.598
		c1.527,0.236,3.036,0.566,4.427,1.275c1.372,0.695,2.442,1.707,3.352,2.965c1.574,2.174,2.045,4.658,2.258,7.229
		c0.253,3.078,0.123,6.164,0.068,9.246c-0.048,2.693,0.015,5.381,0.659,8.021c0.211,0.869,0.523,1.693,0.96,2.467
		c0.616,1.09,1.455,1.41,2.661,1.053c1.219-0.363,2.265-1.031,3.196-1.883c2.614-2.391,4.113-5.391,4.857-8.82
		c0.62-2.867,0.259-5.607-0.933-8.262c-0.309-0.689-0.608-1.383-0.913-2.074c-0.174-0.391-0.351-0.727-0.819-0.914
		c-0.49-0.193-0.617-0.715-0.433-1.156c0.197-0.469,0.835-0.779,1.31-0.605c0.413,0.148,0.739,0.43,0.97,0.805
		c1.681,2.729,3.11,5.559,3.495,8.801c0.192,1.617-0.027,3.219-0.346,4.791c-0.716,3.529-2.165,6.736-4.477,9.523
		c-1.367,1.648-3.014,2.926-5.061,3.623c-2.974,1.012-5.082,0.59-7.243-1.693c-1.856-1.963-2.868-4.377-3.485-6.967
		c-0.804-3.381-0.971-6.816-0.802-10.275c0.104-2.131,0.294-4.26,0.317-6.391c0.018-1.598,0.007-3.223-0.814-4.697
		c-0.789-1.416-1.964-2.354-3.469-2.904c-1.802-0.66-3.68-0.967-5.574-1.188c-0.518-0.061-1.033-0.205-1.629-0.133
		c-0.084,1.1-0.168,2.205-0.254,3.311c-0.38,4.834-1.517,9.455-3.941,13.705c-1.68,2.947-3.56,5.758-5.969,8.164
		c-2.378,2.373-5.115,4.225-8.376,5.168c-1.992,0.574-4.014,0.531-6.026,0.004c-4.598-1.201-7.422-4.346-9.354-8.486
		c-0.945-2.023-1.69-4.113-2.105-6.322c-0.3,0.123-0.286,0.373-0.346,0.59c-0.863,3.166-1.693,6.342-2.607,9.494
		c-0.729,2.521-1.592,5.004-2.633,7.416c-0.393,0.91-0.877,1.771-1.52,2.523c-1.171,1.371-2.952,1.977-4.487,1.127
		c-0.733-0.402-1.288-1.006-1.746-1.699c-1.205-1.818-2.009-3.824-2.75-5.863c-0.821-2.26-1.465-4.563-1.858-6.934
		c-0.235-1.426-0.364-2.863-0.439-4.305c-0.125-2.359-0.236-4.719-0.308-7.078c-0.096-3.248-0.174-6.496-0.125-9.75
		c0.028-1.793,0.152-3.598-0.054-5.447c-0.298,0.234-0.313,0.533-0.392,0.805c-1.422,4.883-2.719,9.809-4.353,14.629
		c-1.992,5.875-4.066,11.725-6.553,17.41c-0.913,2.088-2.072,4.031-3.626,5.719c-0.088,0.096-0.173,0.197-0.266,0.289
		c-1.495,1.484-3.226,1.451-4.647-0.1c-1.009-1.102-1.774-2.375-2.375-3.723c-1.867-4.182-3.196-8.539-4.047-13.041
		c-0.464-2.455-0.736-4.932-0.945-7.422c-0.021-0.246,0.037-0.523-0.151-0.73c-0.288-0.084-0.449,0.117-0.629,0.24
		c-1.306,0.883-2.619,1.76-3.995,2.531c-0.474,0.266-0.613,0.576-0.543,1.111c0.8,6.01-0.825,11.51-3.573,16.768
		c-1.643,3.141-3.892,5.756-6.782,7.811c-1.605,1.143-3.357,1.934-5.359,2.016c-2.47,0.105-4.555-0.836-6.339-2.477
		c-2.405-2.211-4.18-4.887-5.452-7.877c-0.939-2.209-1.565-4.523-1.893-6.91c-0.062-0.455-0.172-0.902-0.259-1.352
		c-0.339,0.012-0.326,0.297-0.394,0.488c-1.229,3.43-2.466,6.855-3.667,10.295c-0.825,2.365-1.796,4.652-3.255,6.707
		c-0.843,1.186-2.033,1.701-3.226,1.324c-0.78-0.248-1.334-0.82-1.791-1.477c-0.89-1.281-1.417-2.742-1.948-4.184
		c-1.095-2.975-1.628-6.07-1.984-9.217c-0.451-3.99-0.473-7.99-0.49-11.996c-0.007-1.701-0.083-3.406-0.19-5.105
		c-0.108-1.711-0.329-1.83-1.899-1.109c-0.96,0.443-1.798,1.078-2.57,1.803c-2.583,2.422-4.426,5.359-5.876,8.553
		c-1.324,2.914-2.164,5.98-2.703,9.135c-0.135,0.793-0.093,1.564-0.012,2.352c0.123,1.209,0.213,2.42,0.31,3.631
		c0.019,0.227,0.013,0.461-0.003,0.688c-0.059,0.811-0.358,1.506-1.178,1.77c-0.822,0.266-1.569,0.006-2.147-0.627
		c-0.784-0.857-1.31-1.891-1.791-2.93c-1.008-2.176-1.921-4.395-2.463-6.736c-0.554-2.395-1.023-4.811-1.483-7.227
		c-0.337-1.771-0.598-3.557-0.898-5.336c-0.026-0.158-0.086-0.311-0.148-0.521c-0.737,0.402-1.26,0.986-1.805,1.541
		c-1.719,1.738-2.927,3.777-3.561,6.146c-0.068,0.254-0.122,0.514-0.212,0.758c-0.164,0.439-0.49,0.73-0.962,0.711
		c-0.459-0.016-0.782-0.297-0.944-0.746c-0.173-0.48-0.161-0.953-0.055-1.449c0.524-2.453,1.815-4.488,3.458-6.318
		c0.944-1.053,1.969-2.035,3.147-2.824c0.527-0.354,0.614-0.777,0.518-1.342c-0.407-2.398-0.597-4.82-0.738-7.246
		c-0.167-2.869,0.037-5.727,0.672-8.514c0.734-3.213,1.857-6.301,4.071-8.85c1.481-1.705,3.29-2.82,5.625-2.801
		c1.739,0.016,3.29,0.623,4.572,1.795c2.808,2.563,4.239,5.746,3.955,9.566c-0.183,2.473-1.174,4.695-2.566,6.74
		c-2.121,3.113-4.825,5.627-7.957,7.684c-0.778,0.512-1.135,0.98-0.962,2.031c0.667,4.047,1.277,8.102,2.197,12.102
		c0.108,0.473,0.07,0.98,0.353,1.521c0.547-1.602,1.025-3.131,1.65-4.607c1.574-3.725,3.757-7.061,6.416-10.098
		c0.802-0.914,1.646-1.785,2.525-2.625c0.769-0.734,1.63-1.357,2.585-1.783c1.455-0.65,2.885-0.467,4.187,0.488
		c1.336,0.979,2.04,2.395,2.519,3.908c0.534,1.693,0.74,3.445,0.85,5.227c0.149,2.428,0.234,4.855,0.25,7.285
		c0.016,2.725-0.019,5.447,0.029,8.17c0.042,2.398,0.118,4.795,0.35,7.184c0.048,0.498,0.213,0.957,0.298,1.422
		c0.352,0.125,0.44-0.16,0.539-0.33c0.393-0.68,0.789-1.365,1.124-2.076c2.129-4.518,3.841-9.205,5.612-13.869
		c0.198-0.521,0.354-1.064,0.599-1.563c0.934-1.902,1.212-3.914,1.156-6.01c-0.051-1.881,0.35-3.721,0.678-5.561
		c0.252-1.41,0.965-2.646,1.667-3.869c0.43-0.748,1.047-1.346,1.878-1.678c1.611-0.639,2.994,0.09,3.37,1.777
		c0.108,0.486,0.115,0.988,0.04,1.471c-0.238,1.525-0.32,3.068-0.623,4.586c-0.443,2.229-0.565,4.479-0.439,6.754
		c0.118,2.137,0.289,4.266,0.723,6.354c0.56,2.697,1.108,5.402,2.193,7.957c0.53,1.25,1.23,2.391,2.121,3.416
		c1.423,1.639,2.896,2.012,4.935,1.246c1.25-0.469,2.332-1.211,3.324-2.08c4.287-3.748,6.694-8.508,7.542-14.102
		c0.232-1.531,0.349-3.066,0.257-4.611c-0.045-0.768-0.054-0.764-0.778-0.617c-2.898,0.584-5.688,0.379-8.283-1.17
		c-3.029-1.809-4.734-5.572-4.025-8.949c0.269-1.279,0.864-2.408,1.842-3.301c1.733-1.578,3.886-1.814,6.014-0.67
		c1.531,0.824,2.765,1.996,3.791,3.385c1.422,1.924,2.388,4.068,2.976,6.385c0.256,1.006,0.274,1.023,1.202,0.469
		c1.352-0.809,2.67-1.676,4.037-2.461c0.583-0.334,0.685-0.764,0.671-1.375c-0.056-2.363-0.213-4.727-0.158-7.092
		c0.043-1.898,0.093-3.799,0.134-5.697c0.005-0.191,0.047-0.396-0.113-0.625c-1.218,0.002-2.424,0.293-3.628,0.572
		c-2.154,0.502-4.194,1.301-6.132,2.365c-0.087,0.049-0.172,0.098-0.258,0.145c-0.358,0.195-0.704,0.178-1-0.105
		c-0.327-0.314-0.343-0.688-0.145-1.082c0.339-0.672,0.91-1.115,1.52-1.512c1.639-1.059,3.431-1.77,5.31-2.275
		c1.269-0.344,2.568-0.523,3.86-0.746c0.817-0.139,0.883-0.143,0.912-0.941c0.055-1.521,0.452-2.984,0.68-4.475
		c0.089-0.586,0.276-1.146,0.531-1.686c0.367-0.77,0.95-1.289,1.82-1.297c0.918-0.01,1.513,0.541,1.896,1.342
		c0.388,0.813,0.532,1.689,0.636,2.568c0.147,1.236,0.396,2.465,0.375,3.719c-0.01,0.559,0.265,0.689,0.782,0.738
		c4.445,0.42,8.854,1.105,13.255,1.854c1.81,0.305,3.63,0.572,5.465,0.699c0.801,0.055,0.813,0.035,1.026-0.691
		c0.647-2.207,1.185-4.43,1.374-6.74c0.135-1.66,0.276-3.34,0.8-4.945c0.112-0.342,0.223-0.691,0.396-1.006
		c0.655-1.193,2.066-1.334,2.951-0.305c0.598,0.699,0.839,1.559,1.005,2.43c0.348,1.844,0.484,3.711,0.592,5.578
		c0.104,1.771,0.189,3.543,0.238,5.316c0.014,0.52,0.241,0.596,0.67,0.557c3.512-0.326,6.68-1.393,9.052-4.184
		c1.053-1.238,1.738-2.623,1.68-4.295c-0.024-0.701-0.185-1.369-0.594-1.953c-0.442-0.629-0.93-0.783-1.618-0.457
		c-0.52,0.246-1.115,0.42-1.333,1.076c-0.117,0.35-0.401,0.518-0.779,0.42c-0.355-0.092-0.543-0.352-0.611-0.701
		c-0.052-0.27-0.028-0.541,0.149-0.75c0.873-1.037,1.95-1.789,3.314-1.924c0.694-0.072,1.328,0.307,1.844,0.807
		c1.161,1.123,1.465,2.553,1.324,4.074c-0.372,4.008-2.698,6.654-6.114,8.467c-1.73,0.92-3.626,1.336-5.556,1.598
		c-1.436,0.193-1.452,0.186-1.455,1.639c-0.006,4.041-0.06,8.08,0.02,12.121c0.074,3.803,0.264,7.607,0.584,11.4
		c0.198,2.355,0.33,4.719,0.561,7.068c0.183,1.859,0.436,3.713,1,5.51C260.383,205.613,260.507,205.951,260.766,206.316z
		 M249.822,167.82c-0.438-0.213-0.79-0.268-1.152-0.291c-2.491-0.168-4.952-0.57-7.416-0.939c-3.373-0.508-6.754-0.957-10.146-1.316
		c-0.617-0.066-0.602-0.057-0.658,0.584c-0.125,1.412,0.053,2.82,0.04,4.229c-0.03,3.051,0.041,6.102,0.185,9.148
		c0.154,3.279,0.33,6.553,0.57,9.826c0.315,4.322,0.682,8.635,1.448,12.904c0.185,1.031,0.32,2.072,0.726,3.053
		c0.448,1.08,0.744,1.152,1.555,0.293c0.837-0.887,1.5-1.908,2.083-2.977c2.335-4.275,4.033-8.83,5.819-13.342
		c1.704-4.301,3.16-8.691,4.513-13.117C248.205,173.209,249.001,170.539,249.822,167.82z M155.263,177.09
		c2.514-1.387,5.892-4.59,7.496-7.023c1.002-1.52,1.819-3.117,2.163-4.92c0.689-3.613-0.897-6.727-3.475-8.512
		c-2.011-1.393-3.885-0.836-4.917,1.363c-0.068,0.146-0.14,0.295-0.201,0.445c-1.267,3.127-1.478,6.426-1.563,9.738
		c-0.055,2.164,0.125,4.326,0.211,6.486C155.008,175.451,155.097,176.227,155.263,177.09z M213.293,184.504
		c0.743,0.082,1.536-0.125,2.335-0.309c0.484-0.109,0.612-0.32,0.507-0.828c-0.568-2.713-1.65-5.176-3.54-7.23
		c-0.71-0.771-1.529-1.436-2.519-1.846c-1.247-0.52-2.204-0.281-3.052,0.785c-0.914,1.146-1.195,2.439-0.899,3.879
		C206.746,181.969,210.059,184.768,213.293,184.504z M278.535,177.748c1.195,0.086,2.368-0.076,3.511-0.383
		c1.824-0.49,2.927-1.684,3.223-3.568c0.108-0.688,0.032-1.381-0.132-2.053c-0.491-2.027-1.584-3.586-3.541-4.441
		c-0.895-0.393-1.719-0.311-2.432,0.424c-0.302,0.311-0.556,0.65-0.748,1.031c-1.339,2.662-1.615,5.582-2.052,8.465
		c-0.051,0.342,0.175,0.365,0.406,0.414C277.353,177.766,277.947,177.711,278.535,177.748z M304.186,169.787
		c-0.416-2.906-1.404-5.375-2.903-7.648c-0.435-0.66-0.917-1.279-1.531-1.785c-1.374-1.129-2.488-0.824-3.079,0.85
		c-0.032,0.09-0.062,0.186-0.085,0.281c-0.364,1.428-0.178,2.813,0.448,4.115C298.444,168.531,301.153,169.27,304.186,169.787z"/>
	<path fill-rule="evenodd" clip-rule="evenodd" d="M156.913,246.363c0.214-0.475,0.422-0.949,0.642-1.422
		c1.688-3.631,4.059-6.744,7.14-9.307c1.089-0.908,2.231-1.734,3.643-2.088c1.824-0.455,3.312,0.094,4.464,1.533
		c1.041,1.301,1.403,2.879,1.669,4.475c0.508,3.059,0.517,6.152,0.573,9.24c0.042,2.268,0.125,4.531,0.416,6.783
		c0.134,1.045,0.312,2.08,0.612,3.088c0.167,0.559,0.316,1.146,0.879,1.508c0.667-0.471,1.082-1.146,1.509-1.803
		c1.171-1.793,2.057-3.738,2.929-5.688c1.583-3.535,3.137-7.084,4.698-10.629c0.424-0.963,0.771-1.947,1.031-2.973
		c0.438-1.725,1.08-3.379,2.002-4.908c1.08-1.791,2.456-3.301,4.519-3.904c3.115-0.914,5.838-0.082,8.118,2.18
		c0.918,0.91,1.56,2.025,1.97,3.264c0.125,0.381,0.206,0.762,0.184,1.16c-0.042,0.775-0.533,1.418-1.225,1.617
		c-0.801,0.229-1.636-0.07-2.053-0.781c-0.163-0.279-0.245-0.605-0.355-0.914c-0.745-2.076-2.444-3.27-4.568-3.244
		c-0.835,0.01-1.573,0.273-2.145,0.844c-1.378,1.373-2.385,2.955-2.514,4.969c-0.017,0.268-0.063,0.525-0.192,0.758
		c-0.605,1.09-0.812,2.285-0.924,3.498c-0.316,3.434-0.129,6.828,0.911,10.141c0.207,0.658,0.454,1.303,0.778,1.914
		c0.775,1.459,1.472,1.66,2.938,0.854c0.755-0.418,1.407-0.967,2.011-1.574c1.56-1.568,2.87-3.338,4.119-5.152
		c0.838-1.217,1.654-2.449,2.484-3.674c0.314-0.461,0.658-0.904,1.096-1.262c1.237-1,2.837-0.662,3.566,0.76
		c0.488,0.955,0.597,2.008,0.753,3.047c0.321,2.143,0.622,4.291,1.196,6.387c0.208,0.762,0.458,1.512,0.899,2.174
		c0.355,0.535,0.542,0.557,1.006,0.109c0.523-0.504,0.916-1.113,1.289-1.736c1.103-1.84,1.905-3.818,2.681-5.805
		c1.563-4.008,3.13-8.012,4.268-12.168c0.142-0.518,0.204-1.02,0.144-1.555c-0.171-1.533-0.321-3.068-0.477-4.605
		c-0.023-0.229-0.062-0.459-0.045-0.686c0.068-0.889,0.679-1.553,1.529-1.688c0.81-0.127,1.615,0.367,1.924,1.205
		c0.253,0.686,0.29,1.418,0.361,2.131c0.293,2.941,0.553,5.887,0.828,8.828c0.008,0.086,0.046,0.17,0.089,0.316
		c0.358-0.318,0.354-0.744,0.466-1.098c1.642-5.184,4.387-9.67,8.396-13.363c0.75-0.691,1.542-1.33,2.387-1.9
		c0.573-0.389,1.173-0.725,1.822-0.973c2.311-0.879,4.271-0.012,5.18,2.291c0.578,1.463,0.678,3.012,0.748,4.551
		c0.151,3.281,0.215,6.568,0.24,9.855c0.026,3.221,0.163,6.438,0.77,9.615c0.172,0.904,0.409,1.791,0.782,2.637
		c0.159,0.363,0.339,0.715,0.609,1.008c0.402,0.436,0.783,0.52,1.327,0.277c0.457-0.203,0.841-0.52,1.185-0.873
		c2.499-2.572,4.939-5.193,6.568-8.443c0.073-0.146,0.157-0.291,0.253-0.422c0.579-0.791,1.539-1.02,2.354-0.57
		c0.784,0.43,1.118,1.311,0.785,2.199c-0.334,0.895-0.809,1.727-1.334,2.52c-1.786,2.697-3.895,5.127-6.196,7.389
		c-0.54,0.533-1.142,0.99-1.813,1.35c-2.083,1.117-4.333,0.705-5.886-1.074c-0.771-0.885-1.233-1.932-1.596-3.031
		c-0.694-2.104-0.985-4.285-1.162-6.48c-0.351-4.361-0.286-8.736-0.401-13.105c-0.044-1.709-0.085-3.418-0.361-5.109
		c-0.23-1.41-0.476-1.523-1.684-0.723c-2.276,1.512-4.09,3.496-5.682,5.689c-2.413,3.33-3.831,7.086-4.712,11.068
		c-0.625,2.824-0.998,5.691-1.383,8.555c-0.083,0.617-0.147,1.242-0.374,1.83c-0.384,0.996-1.113,1.498-2.012,1.404
		c-0.848-0.09-1.47-0.691-1.596-1.736c-0.218-1.826-0.355-3.66-0.53-5.492c-0.078-0.816-0.161-1.635-0.25-2.451
		c-0.024-0.219-0.015-0.461-0.229-0.645c-0.297,0.342-0.369,0.773-0.518,1.162c-0.995,2.609-1.97,5.225-3.166,7.748
		c-0.706,1.488-1.501,2.922-2.575,4.184c-0.386,0.455-0.819,0.855-1.309,1.191c-1.679,1.148-3.469,0.994-4.933-0.42
		c-0.648-0.627-1.1-1.383-1.459-2.205c-0.826-1.881-1.177-3.889-1.539-5.891c-0.122-0.674-0.225-1.35-0.347-2.084
		c-0.384,0.129-0.48,0.424-0.629,0.646c-1.353,2.023-2.763,4.002-4.382,5.824c-1.03,1.16-2.141,2.23-3.482,3.029
		c-1.024,0.607-2.102,1.063-3.325,1.109c-1.368,0.053-2.499-0.449-3.475-1.363c-0.883-0.828-1.442-1.867-1.896-2.969
		c-0.73-1.77-1.153-3.621-1.466-5.529c-0.426,0.023-0.408,0.408-0.508,0.633c-0.916,2.035-1.821,4.078-2.823,6.072
		c-0.737,1.471-1.542,2.904-2.566,4.197c-0.532,0.672-1.111,1.293-1.871,1.729c-1.195,0.686-2.371,0.662-3.545-0.033
		c-1.129-0.668-1.823-1.68-2.271-2.883c-0.67-1.801-0.94-3.688-1.138-5.582c-0.328-3.143-0.321-6.301-0.4-9.455
		c-0.052-2.037-0.159-4.07-0.594-6.072c-0.111-0.51-0.257-1.021-0.463-1.502c-0.392-0.906-0.798-1.023-1.711-0.549
		c-0.674,0.352-1.26,0.83-1.834,1.322c-2.898,2.492-5,5.547-6.441,9.076c-0.986,2.416-1.555,4.941-1.983,7.506
		c-0.104,0.613-0.185,1.236-0.416,1.82c-0.394,0.994-1.11,1.484-2.02,1.398c-0.848-0.082-1.458-0.68-1.631-1.715
		c-0.189-1.135-0.308-2.279-0.458-3.418c-0.042-0.322-0.034-0.656-0.214-0.947c-0.349,0.088-0.449,0.391-0.621,0.617
		c-1.756,2.301-3.582,4.541-5.521,6.689c-1.353,1.498-2.844,2.824-4.653,3.756c-2.215,1.137-4.453,1.303-6.686,0.066
		c-1.448-0.801-2.507-2.006-3.361-3.396c-1.127-1.836-1.819-3.854-2.405-5.91c-1.138-4.002-1.663-8.102-1.975-12.234
		c-0.251-3.344-0.387-6.693-0.443-10.045c-0.004-0.23-0.02-0.459-0.031-0.689c-0.016-0.303-0.18-0.385-0.462-0.342
		c-3.419,0.51-6.65,1.523-9.474,3.594c-0.664,0.486-1.229,1.074-1.68,1.781c-0.494,0.773-1.281,1.049-2.04,0.82
		c-0.985-0.299-1.51-1.361-1.154-2.375c0.21-0.598,0.583-1.1,1.006-1.566c1.186-1.309,2.611-2.295,4.164-3.107
		c2.792-1.461,5.759-2.365,8.886-2.727c0.503-0.059,0.669-0.229,0.661-0.725c-0.042-2.662-0.049-5.324-0.58-7.951
		c-0.171-0.852-0.097-1.65,0.7-2.199c1.027-0.709,2.377-0.221,2.736,1.055c0.23,0.814,0.334,1.672,0.451,2.516
		c0.266,1.926,0.228,3.869,0.321,5.807c0.01,0.195,0.02,0.393,0.02,0.59c0.001,0.344,0.104,0.578,0.511,0.535
		c0.131-0.016,0.264-0.002,0.395-0.006c3.62-0.059,7.219,0.248,10.825,0.512c2.946,0.215,5.901,0.42,8.857,0.07
		c0.899-0.105,0.889-0.076,0.986-0.971c0.304-2.818,0.826-5.586,1.937-8.215c0.502-1.189,1.139-2.291,2.067-3.209
		c2.068-2.043,4.768-2.025,6.813,0.053c2.26,2.295,2.783,6.002,1.286,9.172c-0.887,1.881-2.321,3.246-4.102,4.266
		c-1.26,0.721-2.594,1.27-3.997,1.639c-0.417,0.107-0.665,0.258-0.688,0.777c-0.234,5-0.06,9.988,0.384,14.969
		c0.012,0.129,0.039,0.256,0.059,0.385C156.81,246.361,156.861,246.363,156.913,246.363z M152.595,231.098
		c-3.691,0.314-7.299,0.158-10.896-0.152c-3.081-0.266-6.159-0.404-9.248-0.365c-0.96,0.014-0.96,0.02-0.951,0.98
		c0.001,0.1,0.002,0.199,0.005,0.297c0.162,4.957,0.295,9.916,0.971,14.836c0.448,3.26,1.121,6.467,2.353,9.535
		c0.455,1.131,1.007,2.213,1.837,3.125c1.373,1.508,2.798,1.752,4.591,0.787c1.259-0.678,2.324-1.605,3.268-2.664
		c2.735-3.064,5.396-6.189,7.575-9.691c0.138-0.221,0.263-0.475,0.46-0.633c0.436-0.35,0.509-0.762,0.467-1.299
		c-0.373-4.75-0.555-9.508-0.378-14.273C152.654,231.453,152.622,231.324,152.595,231.098z M156.749,226.527
		c1.723-0.584,3.271-1.311,4.417-2.703c0.925-1.125,1.251-2.434,1.109-3.867c-0.08-0.811-0.401-1.521-0.924-2.135
		c-0.673-0.791-1.166-0.803-1.882-0.072c-0.419,0.426-0.715,0.938-0.974,1.471c-0.677,1.398-1.088,2.883-1.383,4.4
		C156.934,224.547,156.668,225.465,156.749,226.527z"/>
	<path fill-rule="evenodd" clip-rule="evenodd" d="M97.314,143.396c0.471-0.58,0.762-1.238,1.05-1.895
		c1.097-2.496,1.992-5.07,2.941-7.625c0.835-2.246,1.617-4.512,2.45-6.758c0.146-0.393,0.171-0.768,0.127-1.158
		c-0.42-3.725-0.444-7.479-0.743-11.211c-0.037-0.459-0.056-0.924-0.007-1.377c0.114-1.082,0.921-1.846,1.858-1.814
		c0.966,0.031,1.693,0.805,1.754,1.904c0.166,3.02,0.284,6.041,0.488,9.055c0.279,4.102,0.743,8.18,1.955,12.133
		c0.27,0.883,0.579,1.75,1.106,2.516c0.632,0.916,1.098,0.969,1.924,0.242c0.598-0.525,1.048-1.176,1.473-1.842
		c1.621-2.533,2.741-5.303,3.821-8.09c1.483-3.828,2.758-7.729,4.134-11.594c0.221-0.619,0.45-1.234,0.69-1.846
		c0.169-0.428,0.377-0.84,0.663-1.205c0.963-1.229,2.628-1.174,3.503,0.113c0.359,0.527,0.511,1.135,0.642,1.746
		c0.394,1.834,0.562,3.701,0.772,5.561c0.394,3.492,0.744,6.988,1.135,10.482c0.092,0.83,0.017,1.691,0.357,2.584
		c0.745-0.582,1.438-1.123,2.132-1.664c0.726-0.564,1.44-1.146,2.186-1.686c1.067-0.77,2.138-0.68,2.788,0.201
		c0.617,0.838,0.399,1.863-0.596,2.654c-1.8,1.434-3.591,2.879-5.429,4.26c-0.656,0.492-0.854,1.02-0.815,1.824
		c0.176,3.611,0.283,7.225,0.029,10.84c-0.304,4.322-1.087,8.535-2.974,12.477c-1.051,2.193-2.462,4.113-4.482,5.529
		c-1.426,0.998-2.988,1.637-4.747,1.727c-1.591,0.078-2.977-0.447-4.16-1.486c-2.265-1.988-3.128-4.557-2.998-7.502
		c0.168-3.77,1.458-7.188,3.377-10.383c2.057-3.43,4.645-6.447,7.392-9.334c1.292-1.357,2.642-2.656,4.059-3.885
		c0.484-0.418,0.698-0.836,0.645-1.516c-0.244-3.111-0.591-6.215-0.912-9.318c-0.163-1.566-0.34-3.133-0.516-4.701
		c-0.051-0.445-0.045-0.904-0.301-1.467c-0.389,1.107-0.738,2.088-1.082,3.072c-1.258,3.594-2.534,7.182-4.141,10.643
		c-0.832,1.791-1.764,3.523-2.963,5.104c-0.621,0.816-1.322,1.549-2.201,2.094c-1.888,1.172-3.992,0.936-5.593-0.627
		c-0.988-0.967-1.568-2.18-2.034-3.453c-0.315-0.857-0.574-1.736-0.912-2.773c-0.333,0.879-0.609,1.609-0.889,2.336
		c-0.786,2.055-1.553,4.117-2.369,6.158c-0.5,1.252-1.119,2.449-1.941,3.529c-0.381,0.5-0.809,0.949-1.346,1.287
		c-1.174,0.74-2.416,0.623-3.429-0.332c-0.664-0.623-1.048-1.422-1.374-2.252c-0.724-1.84-1.182-3.756-1.547-5.693
		c-0.763-4.043-1.054-8.143-1.394-12.234c-0.354-4.285-0.582-8.588-1.368-12.83c-0.066-0.354-0.161-0.701-0.252-1.096
		c-0.397,0.104-0.475,0.447-0.625,0.705c-2.46,4.281-4.117,8.861-5.055,13.705c-0.627,3.236-0.854,6.512-0.93,9.801
		c-0.017,0.723-0.043,1.443-0.055,2.168c-0.008,0.473-0.133,0.906-0.375,1.309c-0.77,1.281-2.297,1.35-3.171,0.135
		c-0.369-0.51-0.579-1.104-0.797-1.686c-1.771-4.734-3.536-9.473-5.307-14.207c-0.54-1.447-1.092-2.889-1.796-4.264
		c-0.174-0.342-0.301-0.725-0.679-0.98c-0.34,0.484-0.49,1.025-0.652,1.547c-1.687,5.412-2.483,10.938-2.083,16.617
		c0.113,1.607,0.277,3.207,0.482,4.803c0.05,0.393,0.067,0.787-0.006,1.178c-0.157,0.836-0.703,1.438-1.43,1.572
		c-0.798,0.146-1.474-0.145-1.93-0.877c-0.225-0.361-0.395-0.758-0.575-1.145c-2.639-5.689-5.196-11.414-7.511-17.246
		c-0.655-1.646-1.387-3.262-2.208-4.834c-0.181-0.35-0.363-0.707-0.473-1.08c-0.248-0.84,0.14-1.695,0.896-2.084
		c0.735-0.379,1.688-0.17,2.214,0.508c0.179,0.23,0.306,0.504,0.447,0.762c1.689,3.094,2.855,6.416,4.225,9.65
		c0.639,1.508,1.289,3.01,1.977,4.617c0.293-0.336,0.194-0.637,0.21-0.898c0.287-4.545,1.036-9,2.551-13.309
		c0.295-0.838,0.634-1.656,1.139-2.393c1.361-1.986,3.413-2.15,5.075-0.404c0.641,0.672,1.103,1.467,1.52,2.289
		c1.324,2.615,2.237,5.395,3.278,8.123c0.433,1.135,0.831,2.285,1.266,3.418c0.087,0.227,0.077,0.527,0.448,0.688
		c0.17-1.143,0.317-2.26,0.504-3.371c0.961-5.725,2.876-11.111,5.788-16.137c0.577-0.998,1.202-1.971,2.123-2.695
		c1.35-1.061,2.95-0.826,3.962,0.559c0.353,0.482,0.577,1.027,0.771,1.588c0.333,0.967,0.562,1.959,0.73,2.961
		c0.502,2.984,0.75,5.998,1.009,9.008c0.402,4.678,0.638,9.375,1.378,14.021c0.29,1.818,0.668,3.617,1.222,5.373
		C96.923,142.672,96.969,143.078,97.314,143.396z M125.991,141.074c-0.195,0.168-0.348,0.289-0.487,0.422
		c-2.538,2.441-4.868,5.066-6.964,7.895c-1.711,2.311-3.123,4.777-3.935,7.555c-0.425,1.457-0.73,2.932-0.652,4.461
		c0.075,1.461,0.556,2.76,1.659,3.773c0.587,0.537,1.262,0.766,2.077,0.646c0.867-0.131,1.638-0.461,2.354-0.939
		c1.344-0.896,2.298-2.141,3.068-3.535c0.975-1.766,1.596-3.664,2.068-5.617c1.149-4.742,1.068-9.57,0.965-14.396
		C126.143,141.285,126.086,141.234,125.991,141.074z"/>
	<path fill-rule="evenodd" clip-rule="evenodd" d="M349.864,225.824c-0.315,0.881-0.579,1.617-0.842,2.354
		c-1.329,3.719-2.912,7.322-4.903,10.738c-1.012,1.736-2.14,3.391-3.546,4.84c-0.713,0.732-1.492,1.387-2.395,1.879
		c-2.07,1.131-4.096,1.021-6.048-0.277c-1.584-1.053-2.62-2.566-3.389-4.266c-1.179-2.604-1.726-5.367-1.997-8.195
		c-0.031-0.318,0.012-0.648-0.155-1.027c-0.311,0.273-0.337,0.643-0.448,0.957c-1.347,3.879-2.756,7.732-4.488,11.459
		c-0.624,1.342-1.335,2.635-2.204,3.84c-0.522,0.723-1.115,1.383-1.82,1.93c-1.979,1.533-4.236,1.172-5.621-0.912
		c-0.908-1.365-1.351-2.914-1.632-4.508c-0.521-2.951-0.634-5.941-0.791-8.928c-0.124-2.361-0.187-4.73-0.576-7.068
		c-0.086-0.521-0.197-1.035-0.417-1.516c-0.238-0.514-0.347-0.553-0.822-0.268c-0.654,0.393-1.195,0.922-1.709,1.479
		c-1.815,1.969-3.301,4.172-4.58,6.516c-2.235,4.098-3.734,8.461-4.703,13.016c-0.082,0.387-0.158,0.773-0.268,1.152
		c-0.129,0.449-0.354,0.844-0.714,1.156c-1.229,1.078-2.862,0.559-3.156-1.045c-0.189-1.031-0.285-2.082-0.377-3.129
		c-0.272-3.078-0.577-6.148-1.028-9.207c-0.315-2.145-0.681-4.281-1.382-6.344c-0.254-0.748-0.545-1.482-1.021-2.121
		c-0.445-0.598-0.725-0.639-1.32-0.219c-0.513,0.363-0.939,0.818-1.339,1.303c-2.734,3.283-4.565,7.039-5.754,11.123
		c-0.87,2.984-1.368,6.018-1.06,9.145c0.029,0.289,0.009,0.596-0.05,0.881c-0.174,0.84-0.82,1.426-1.614,1.506
		c-0.75,0.074-1.519-0.441-1.83-1.236c-0.23-0.586-0.289-1.217-0.365-1.832c-0.691-5.574-1.29-11.16-1.829-16.752
		c-0.138-1.439-0.387-2.863-0.672-4.281c-0.064-0.322-0.124-0.646-0.147-0.973c-0.079-1.121,0.53-1.955,1.504-2.082
		c1.006-0.131,1.833,0.469,2.051,1.555c0.238,1.191,0.44,2.391,0.624,3.59c0.283,1.854,0.45,3.717,0.614,5.584
		c0.022,0.254-0.018,0.529,0.214,0.809c0.292-0.236,0.346-0.594,0.474-0.893c1.397-3.287,3.155-6.352,5.56-9.016
		c0.733-0.813,1.551-1.52,2.553-1.98c1.56-0.717,3.008-0.49,4.325,0.584c0.968,0.789,1.572,1.842,2.058,2.967
		c0.771,1.793,1.199,3.68,1.561,5.584c0.356,1.873,0.615,3.758,0.851,5.709c0.437-0.166,0.421-0.572,0.537-0.863
		c1.531-3.871,3.476-7.508,6.045-10.795c0.769-0.984,1.585-1.932,2.506-2.779c0.655-0.605,1.358-1.145,2.166-1.531
		c1.944-0.926,3.905-0.348,5.03,1.488c0.756,1.234,1.017,2.623,1.203,4.027c0.375,2.84,0.408,5.703,0.586,8.555
		c0.152,2.426,0.252,4.857,0.785,7.242c0.151,0.676,0.365,1.33,0.665,1.953c0.325,0.67,0.456,0.689,0.983,0.197
		c0.63-0.592,1.095-1.307,1.528-2.047c1.38-2.365,2.346-4.914,3.353-7.449c1.782-4.492,3.186-9.107,4.536-13.742
		c0.203-0.693,0.423-1.383,0.772-2.021c0.513-0.936,1.211-1.383,2.043-1.242c0.966,0.164,1.589,0.768,1.848,1.701
		c0.184,0.662,0.24,1.355,0.257,2.047c0.059,2.434,0.1,4.865,0.202,7.295c0.111,2.641,0.562,5.221,1.549,7.689
		c0.407,1.016,0.933,1.959,1.713,2.738c1.119,1.115,2.152,1.191,3.416,0.262c1.101-0.811,1.944-1.863,2.713-2.975
		c2.008-2.906,3.509-6.08,4.849-9.336c1.176-2.855,2.083-5.809,3.094-8.723c0.204-0.586,0.423-1.174,0.674-1.742
		c0.199-0.453,0.482-0.857,0.895-1.156c1.06-0.768,2.279-0.529,2.964,0.584c0.317,0.516,0.457,1.094,0.558,1.674
		c1.012,5.891,2.014,11.779,3.018,17.672c0.049,0.289,0.056,0.59,0.224,0.85c0.375-0.037,0.572-0.326,0.82-0.521
		c2.277-1.781,4.57-3.541,6.922-5.227c0.373-0.268,0.749-0.545,1.16-0.74c0.83-0.393,1.781-0.107,2.259,0.625
		c0.456,0.697,0.355,1.633-0.272,2.254c-0.231,0.229-0.511,0.41-0.776,0.604c-3.035,2.197-6.025,4.451-8.915,6.84
		c-0.485,0.4-0.658,0.773-0.568,1.418c0.715,5.15,1.185,10.32,0.901,15.525c-0.197,3.621-0.694,7.195-2.142,10.568
		c-0.784,1.826-1.798,3.5-3.246,4.893c-3.451,3.314-8.057,2.967-11.268,0.014c-2.012-1.852-2.953-4.225-3.232-6.891
		c-0.402-3.82,0.583-7.363,2.255-10.748c1.714-3.473,4.042-6.529,6.546-9.457c1.733-2.027,3.64-3.887,5.646-5.639
		c0.406-0.355,0.598-0.705,0.512-1.27c-0.778-5.063-1.662-10.109-2.558-15.154C349.993,226.039,349.968,226.012,349.864,225.824z
		 M353.161,246.521c-0.299,0.012-0.427,0.229-0.588,0.379c-3.071,2.906-5.737,6.146-8.024,9.697
		c-1.052,1.635-1.926,3.365-2.548,5.207c-0.766,2.273-1.13,4.588-0.68,6.982c0.296,1.566,0.947,2.932,2.178,3.98
		c1.936,1.646,4.289,1.572,6.121-0.189c0.38-0.365,0.719-0.766,1.022-1.197c0.878-1.246,1.504-2.613,1.959-4.064
		c0.953-3.037,1.232-6.174,1.338-9.332c0.102-3.025-0.137-6.041-0.443-9.051C353.415,248.129,353.447,247.297,353.161,246.521z"/>
	<path fill-rule="evenodd" clip-rule="evenodd" d="M123.984,203.732c0.001-1.172-0.462-2.492-1.143-3.75
		c-0.865-1.602-1.952-3.045-3.253-4.311c-1.412-1.377-2.87-2.703-4.302-4.059c-1.611-1.523-3.056-3.178-3.893-5.27
		c-1.27-3.172-1.237-6.365,0.071-9.5c1.792-4.295,5.747-4.051,8.254-2.205c1.731,1.271,2.78,3.031,3.565,4.979
		c0.468,1.164,0.761,2.377,0.973,3.609c0.039,0.225,0.054,0.457,0.043,0.686c-0.041,0.871-0.663,1.578-1.49,1.717
		c-0.82,0.139-1.667-0.336-1.959-1.152c-0.143-0.398-0.189-0.83-0.277-1.246c-0.349-1.654-0.893-3.229-1.919-4.598
		c-0.521-0.693-1.129-1.281-1.995-1.533c-0.72-0.209-1.097-0.092-1.525,0.529c-0.166,0.24-0.318,0.504-0.412,0.781
		c-0.979,2.83-0.855,5.551,0.856,8.098c0.664,0.986,1.497,1.826,2.359,2.641c1.957,1.848,4.043,3.566,5.751,5.668
		c1.672,2.059,3.072,4.271,3.658,6.9c0.613,2.74,0.377,5.361-1.349,7.699c-1.631,2.209-4.455,3.287-6.947,2.672
		c-1.081-0.266-2.017-0.803-2.791-1.588c-1.398-1.416-2.474-3.057-3.264-4.885c-0.104-0.24-0.186-0.494-0.238-0.752
		c-0.161-0.797,0.261-1.617,0.987-1.961c0.733-0.348,1.622-0.16,2.132,0.492c0.2,0.252,0.344,0.561,0.47,0.859
		c0.514,1.225,1.249,2.314,2.107,3.311c1.146,1.332,2.86,1.396,4.169,0.209C123.59,206.893,124.054,205.623,123.984,203.732z"/>
	<path fill-rule="evenodd" clip-rule="evenodd" d="M108.666,209.805c0,0.193,0.018,0.361-0.003,0.523
		c-0.113,0.867-0.788,1.518-1.628,1.578c-0.875,0.063-1.619-0.439-1.865-1.283c-0.082-0.283-0.124-0.578-0.151-0.873
		c-0.365-3.955-0.773-7.904-1.077-11.867c-0.399-5.205-0.491-10.43-0.987-15.629c-0.135-1.402-0.223-2.814-0.515-4.201
		c-0.034-0.158-0.047-0.324-0.047-0.488c-0.001-0.898,0.558-1.609,1.392-1.781c0.901-0.188,1.724,0.238,2.062,1.109
		c0.288,0.74,0.359,1.533,0.443,2.314c0.41,3.854,0.658,7.719,0.845,11.588c0.234,4.82,0.572,9.635,1.097,14.436
		C108.399,206.764,108.525,208.301,108.666,209.805z"/>
</g>
</svg>
